<?xml version="1.0" standalone="no"?><!DOCTYPE svg PUBLIC "-//W3C//DTD SVG 1.1//EN" "http://www.w3.org/Graphics/SVG/1.1/DTD/svg11.dtd"><svg t="1680185569291" class="icon" viewBox="0 0 1024 1024" version="1.1" xmlns="http://www.w3.org/2000/svg" p-id="13114" xmlns:xlink="http://www.w3.org/1999/xlink" width="200" height="200"><path d="M953.824 402.656l-365.824-68.032V267.52l365.824-68.032zM70.176 199.488L436 267.52v67.104L70.176 402.656z" fill="#FFD93B" p-id="13115"></path><path d="M953.824 359.264l-365.824-38.976V281.856L953.824 242.88zM70.176 242.88l365.824 38.976v38.432L70.176 359.264z" fill="#F4C534" p-id="13116"></path><path d="M678.08 863.68H345.92l84.96-468.896h162.24z" fill="#E24B4B" p-id="13117"></path><path d="M614.56 394.752h-205.152a17.728 17.728 0 1 1 0-35.52h205.152a17.728 17.728 0 1 1 0 35.52z" fill="#E9EFF4" p-id="13118"></path><path d="M412.288 242.88h199.392v116.352h-199.392z" fill="#3E4347" p-id="13119"></path><path d="M448.384 268.8h127.232v64.544h-127.232z" fill="#65B1EF" p-id="13120"></path><path d="M614.56 242.88h-205.152a17.76 17.76 0 0 1 0-35.52h205.152a17.728 17.728 0 1 1 0 35.52z" fill="#E9EFF4" p-id="13121"></path><path d="M512 107.68a99.712 99.712 0 0 0-99.712 99.712h199.392A99.648 99.648 0 0 0 512 107.68z" fill="#E24B4B" p-id="13122"></path><path d="M512 107.68c-32.224 0-58.368 44.64-58.368 99.712h116.736c0-55.072-26.144-99.712-58.368-99.712z" fill="#D03F3F" p-id="13123"></path><path d="M737.792 916.32H286.208a26.304 26.304 0 1 1 0-52.608h451.552c14.528 0 26.304 11.776 26.304 26.304a26.24 26.24 0 0 1-26.272 26.304z" fill="#3E4347" p-id="13124"></path><path d="M622.4 556.352h-220.704l15.264-83.648h190.176zM663.936 785.92h-304.064l15.264-83.648h273.536z" fill="#DAE5EF" p-id="13125"></path></svg>